HIERARCHY
ROOT pelvis
{
  OFFSET 0 100 0
  CHANNELS 6 Xposition Yposition Zposition Zrotation Xrotation Yrotation
  JOINT pelvis_right_femur
  {
    OFFSET -10.78128 -3.44521 -0.5502486
    CHANNELS 3 Zrotation Xrotation Yrotation
    JOINT right_femur_tibia
    {
      OFFSET -0.8047443 -44.0398 -0.1307829
      CHANNELS 3 Zrotation Xrotation Yrotation
      JOINT right_tibia_foot
      {
        OFFSET 3.006224 -47.83518 -5
        CHANNELS 3 Zrotation Xrotation Yrotation
        End Site
        {
          OFFSET 0 -5 15
        }
      }
    }
  }
  JOINT pelvis_left_femur
  {
    OFFSET 10.78128 -3.44521 -0.5502486
    CHANNELS 3 Zrotation Xrotation Yrotation
    JOINT left_femur_tibia
    {
      OFFSET 0.8047443 -44.0398 -0.1307829
      CHANNELS 3 Zrotation Xrotation Yrotation
      JOINT left_tibia_foot
      {
        OFFSET -4.370144 -48.10324 -4.275266
        CHANNELS 3 Zrotation Xrotation Yrotation
        End Site
        {
          OFFSET 0 -5 15
        }
      }
    }
  }
  JOINT pelvis_spine1
  {
    OFFSET 0 6.468898 -3.129235
    CHANNELS 3 Zrotation Xrotation Yrotation
    JOINT spine1
    {
      OFFSET 0 23.15396 4.99043
      CHANNELS 3 Zrotation Xrotation Yrotation
      JOINT spine2
      {
        OFFSET 0 20.79997 -5.064912
        CHANNELS 3 Zrotation Xrotation Yrotation
        JOINT neck
        {
          OFFSET 0 14.38658 9.616178
          CHANNELS 3 Zrotation Xrotation Yrotation
          End Site
          {
            OFFSET 0 20 0
          }
        }
      }
      JOINT right_manubrium
      {
        OFFSET -5.722621 16.35077 3.967754
        CHANNELS 3 Zrotation Xrotation Yrotation
        JOINT right_clavicle
        {
          OFFSET -13.16364 1.694482 -4.693211
          CHANNELS 3 Zrotation Xrotation Yrotation
          JOINT right_humerus
          {
            OFFSET -28.5034 -0.3100689 -2.792744
            CHANNELS 3 Zrotation Xrotation Yrotation
            JOINT right_radius
            {
              OFFSET -25.15693 0.02248979 -1.271978
              CHANNELS 3 Zrotation Xrotation Yrotation
              End Site
              {
                OFFSET -15 0 0
              }
            }
          }
        }
      }
      JOINT left_manubrium
      {
        OFFSET 5.722621 16.35077 3.967754
        CHANNELS 3 Zrotation Xrotation Yrotation
        JOINT left_clavicle
        {
          OFFSET 13.16364 1.694482 -4.693211
          CHANNELS 3 Zrotation Xrotation Yrotation
          JOINT left_humerus
          {
            OFFSET 29.39168 -1.063119 -2.237045
            CHANNELS 3 Zrotation Xrotation Yrotation
            JOINT left_radius
            {
              OFFSET 24.59957 -0.9528479 0.9047498
              CHANNELS 3 Zrotation Xrotation Yrotation
              End Site
              {
                OFFSET 15 -0 -0
              }
            }
          }
        }
      }
    }
  }
}
MOTION
Frames: 19
Frame Time: 0.0416666666667
0 103.5113 0 2.062202 -2.563172 0.1695396 2.026861 -11.957 8.494385 -0 38.78721 -0 -5.543468 -17.10009 -4.221469 -7.61886 11.72863 -23.74764 -0 4.675706 -0 9.093676 -15.57537 27.22559 -2.533803 -3.658816 4.819468 2.797999 9.036298 -7.705637 1.344601 21.14062 7.011314 3.083937 -25.89859 9.976999 6.075861 -19.52475 10.82084 85.41801 33.81684 -19.8142 -0 0 16.89314 -5.307257 6.976714 3.628205 6.940244 -20.88083 -0.5559629 -95.63505 25.54615 24.06692 0 0 -14.70326 9.521958 16.89946 3.842472
0.2644504 103.4491 1.363197 1.823808 -1.612043 0.2159436 2.425952 -13.78205 8.982615 -0 38.20398 -0 -4.991089 -17.20906 -4.096496 -7.615771 11.54793 -23.80888 -0 4.556486 -0 8.659086 -16.37262 27.06833 -2.636148 -3.849234 4.854777 2.79072 8.989209 -7.701447 1.37062 21.16199 7.002605 3.051645 -25.865 10.04621 6.13444 -19.65601 10.76532 85.25221 33.6486 -19.73255 -0 0 17.29681 -5.110439 6.893222 3.470697 7.013922 -20.91252 -0.4993029 -95.94224 25.57225 24.40853 0 0 -14.36493 9.53862 17.22137 3.91371
0.5413745 103.3353 2.912734 1.046594 -0.4110352 0.2571311 3.315715 -17.92644 8.521463 -0 35.88572 -0 -5.015745 -15.76913 -3.515139 -7.158468 11.50424 -23.4327 -0 4.841729 -0 5.891721 -18.82069 25.56062 -2.309953 -3.262426 4.710769 2.87394 9.163751 -7.807361 1.281039 21.01993 7.053804 3.160679 -26.07175 9.845274 5.951701 -19.23617 10.96978 85.90658 34.1652 -20.21447 -0 0 15.94787 -5.673338 7.211356 3.90033 6.836816 -20.90723 -0.6663644 -94.86279 25.42232 23.18251 0 0 -15.72527 9.584565 16.12818 3.600704
0.8296835 103.1383 4.648968 0.4736096 0.5873593 0.3364066 4.085953 -21.33297 8.294382 -0 33.64943 -0 -5.005588 -14.54535 -3.127715 -6.820743 11.4905 -22.9303 -0 4.969532 -0 4.374285 -20.44261 24.46317 -2.144804 -3.018341 4.597298 2.995269 9.256503 -7.986161 1.223697 20.86797 7.106115 3.21545 -26.31588 9.77398 5.860882 -19.04211 11.08814 86.43083 34.33832 -20.81855 -0 0 15.23713 -5.752062 7.332678 3.965921 6.823396 -21.03506 -0.7445945 -94.30161 25.42631 22.50867 0 0 -16.7773 9.60578 15.55005 3.520492
1.118391 102.7923 6.696695 -0.07635341 1.459078 0.4489115 4.93614 -25.04178 7.725793 -0 30.32412 -0 -5.278828 -12.72969 -2.676424 -6.460778 11.65644 -21.96413 -0 5.217313 -0 3.728072 -21.75891 23.44795 -1.972193 -2.769756 4.485358 3.114552 9.365287 -8.181756 1.150898 20.71173 7.155903 3.27974 -26.52844 9.659969 5.766896 -18.84484 11.20945 87.011 34.4793 -21.50172 -0 0 14.49548 -5.86441 7.442066 4.050972 6.805403 -21.20721 -0.8595034 -93.73321 25.484 21.83703 0 0 -17.91955 9.513649 14.91594 3.602626
1.39836 102.2801 9.113738 -0.5278554 2.292359 0.6093241 5.749068 -28.52655 7.149914 -0 26.59267 -0 -5.53891 -10.76216 -2.262952 -6.167384 11.96384 -20.81751 -0 5.514532 -0 3.664505 -22.75256 22.57953 -1.82337 -2.578085 4.371597 3.245022 9.466273 -8.400932 1.080073 20.54387 7.212694 3.341309 -26.7499 9.565199 5.692712 -18.68019 11.32 87.59362 34.56063 -22.24217 -0 0 13.8428 -5.900861 7.535187 4.073085 6.821592 -21.4212 -0.9693632 -93.23265 25.56216 21.23538 0 0 -19.0575 9.418638 14.35448 3.732453
1.660363 101.6033 11.98251 -0.9131903 3.103757 0.8440029 6.555802 -31.75237 6.572012 -0 22.55452 -0 -5.798902 -8.542476 -1.874999 -5.920352 12.45917 -19.50065 -0 6.058127 -0 3.916093 -23.43505 21.7198 -1.683525 -2.407803 4.255064 3.379437 9.571704 -8.634132 1.006654 20.36655 7.275473 3.407244 -26.96234 9.469239 5.629486 -18.52437 11.42899 88.18833 34.61528 -23.01899 -0 0 13.21307 -5.934003 7.642016 4.081206 6.853614 -21.66739 -1.087854 -92.74148 25.633 20.64361 0 0 -20.21828 9.316613 13.80475 3.895071
1.90049 100.8045 15.37981 -1.273709 3.891203 1.187013 7.367356 -34.46677 6.118432 -0 18.72178 -0 -6.022913 -6.159544 -1.544882 -5.688668 13.13004 -18.14651 -0 7.057447 -0 3.94298 -23.78059 20.64928 -1.553492 -2.252983 4.138528 3.512087 9.682349 -8.870691 0.9324067 20.18479 7.342886 3.47751 -27.15381 9.371224 5.576483 -18.37358 11.53674 88.7761 34.65476 -23.79512 -0 0 12.60377 -5.990784 7.776506 4.092341 6.895711 -21.93409 -1.213438 -92.25016 25.67063 20.05273 0 0 -21.37202 9.223449 13.26378 4.061353
2.120613 99.9664 19.37838 -1.660261 4.570313 1.666484 8.179783 -36.32366 5.838168 -0 15.63686 -0 -6.258248 -3.764012 -1.293514 -5.423379 13.93531 -16.86369 -0 8.86649 -0 3.255663 -23.63184 19.14694 -1.433984 -2.10201 4.03285 3.626082 9.80258 -9.088752 0.8574415 20.01425 7.406853 3.551901 -27.2868 9.25503 5.531349 -18.22397 11.64164 89.3247 34.69188 -24.50695 -0 0 12.01601 -6.130885 7.950272 4.145168 6.930585 -22.20269 -1.351631 -91.75545 25.66015 19.46852 0 0 -22.46076 9.119646 12.72111 4.241985
2.330895 99.21498 24.02034 -2.11395 4.99797 2.278368 8.932314 -36.88546 5.719004 -0 13.86652 -0 -6.588713 -1.738312 -1.137608 -5.077501 14.72225 -15.7704 -0 11.964 -0 1.496517 -22.71853 17.08674 -1.329364 -1.948287 3.957042 3.69511 9.934395 -9.256665 0.7832831 19.88216 7.452875 3.626782 -27.30933 9.100288 5.493437 -18.07998 11.73629 89.78267 34.73354 -25.06755 -0 0 11.47953 -6.415755 8.160181 4.2796 6.934805 -22.4449 -1.50757 -91.28488 25.6154 18.93672 0 0 -23.38146 8.95381 12.18712 4.48869
2.551401 98.7129 29.28325 -2.631611 5.007369 2.950604 9.499658 -35.76818 5.661718 -0 13.73239 -0 -7.128208 -0.6699447 -1.077862 -4.636055 15.15312 -14.92437 -0 16.93444 -0 -1.241433 -20.70832 14.59834 -1.244386 -1.789417 3.933654 3.69003 10.07761 -9.342282 0.7119126 19.81944 7.464323 3.696883 -27.17138 8.886905 5.46336 -17.95386 11.81023 90.09634 34.7812 -25.39413 -0 0 11.04369 -6.895316 8.390345 4.526915 6.884066 -22.62979 -1.68525 -90.88922 25.58658 18.53347 0 0 -24.02184 8.646835 11.68731 4.893562
2.809821 98.62793 35.05434 -3.12208 4.49833 3.527868 9.73337 -32.85767 5.522383 -0 14.95926 -0 -7.94626 -1.053782 -1.100651 -4.148561 14.67901 -14.22903 -0 24.2282 -0 -4.254302 -17.45351 12.10163 -1.18316 -1.628331 3.979385 3.592789 10.22783 -9.326725 0.6456162 19.84372 7.432866 3.758603 -26.852 8.608862 5.44183 -17.86251 11.85648 90.22711 34.8368 -25.43583 -0 0 10.76007 -7.592674 8.62969 4.898536 6.765753 -22.73481 -1.881441 -90.61578 25.63029 18.33002 0 0 -24.31549 8.136578 11.24996 5.535588
3.129369 99.07196 41.14317 -3.397085 3.51435 3.822602 9.546686 -28.41338 5.199106 -0 16.55151 -0 -8.945296 -2.747632 -1.182113 -3.713585 12.69109 -13.39712 -0 33.70761 -0 -6.519829 -13.28428 10.07713 -1.149621 -1.470522 4.097841 3.405947 10.37648 -9.210734 0.5870247 19.94712 7.365732 3.812615 -26.36993 8.281819 5.426837 -17.81881 11.87773 90.15792 34.91098 -25.17771 -0 0 10.65765 -8.510754 8.894443 5.390812 6.586241 -22.75226 -2.082136 -90.47192 25.75376 18.3448 0 0 -24.27688 7.430123 10.88524 6.409251
3.507991 100.0393 47.33719 -3.256571 2.216575 3.725636 8.982528 -22.94665 4.701073 -0 17.27293 -0 -9.801671 -4.766891 -1.270917 -3.373787 8.864686 -12.10895 -0 44.25389 -0 -7.37121 -9.02513 8.800374 -1.146983 -1.321363 4.280815 3.149003 10.51351 -9.009625 0.5388364 20.1027 7.28055 3.861723 -25.77069 7.935806 5.412704 -17.82716 11.88423 89.89112 35.01608 -24.6316 -0 0 10.73603 -9.637381 9.217849 5.992292 6.365618 -22.68684 -2.26729 -90.42542 25.90733 18.54038 0 0 -23.97859 6.600451 10.58227 7.4235
3.905299 101.3869 53.45719 -2.634118 0.7489229 3.275946 8.202186 -17.00251 4.150278 -0 16.4736 -0 -10.13485 -5.997798 -1.305872 -3.029158 3.454125 -10.29034 -0 53.89951 -0 -6.883856 -5.615877 8.409643 -1.176078 -1.184865 4.517449 2.843741 10.63078 -8.741048 0.502792 20.28323 7.193592 3.907561 -25.10037 7.598363 5.392679 -17.88768 11.88582 89.43938 35.15424 -23.82158 -0 0 10.98325 -10.95101 9.62212 6.689919 6.124044 -22.5471 -2.42086 -90.44052 26.03639 18.87036 0 0 -23.49641 5.724064 10.32488 8.481799
4.259581 102.8572 59.37386 -1.666221 -0.8530198 2.621414 7.38847 -11.02208 3.713551 -0 14.42679 -0 -9.79142 -6.223886 -1.31616 -2.513835 -2.775217 -8.208034 -0 60.47019 -0 -5.659918 -3.651118 9.051909 -1.237281 -1.06327 4.804596 2.500588 10.72176 -8.411237 0.4800035 20.47421 7.113649 3.949731 -24.38362 7.285217 5.360637 -18.00372 11.88741 88.80208 35.31986 -22.74925 -0 0 11.40158 -12.44463 10.11458 7.482585 5.871515 -22.3331 -2.533293 -90.50332 26.11264 19.31935 0 0 -22.86467 4.8378 10.10447 9.53636
4.534626 104.1258 65.01037 -0.6258026 -2.583606 1.925561 6.656745 -5.275361 3.486132 -0 11.9052 -0 -8.906682 -6.257196 -1.413965 -1.733152 -8.962878 -6.264901 -0 62.29112 -0 -4.387581 -3.164756 10.71013 -1.334248 -0.9584562 5.151207 2.116139 10.77749 -8.009171 0.4722615 20.67324 7.043579 3.985953 -23.62223 7.004008 5.30937 -18.18764 11.88992 87.94505 35.5057 -21.36446 -0 0 12.02405 -14.14185 10.69761 8.390829 5.607634 -22.02803 -2.595289 -90.62331 26.12431 19.91151 0 0 -22.06541 3.94488 9.922194 10.57762
4.76097 104.885 70.37104 0.1984391 -4.261037 1.292167 6.052947 0.1150349 3.4186 -0 9.579812 -0 -7.716527 -7.100715 -1.598203 -0.6822326 -14.56657 -4.708152 -0 58.70717 -0 -3.557755 -3.713459 12.95309 -1.474261 -0.8749292 5.573594 1.681382 10.78232 -7.513397 0.4823267 20.88118 6.985409 4.012285 -22.81298 6.763652 5.229123 -18.46179 11.89251 86.80662 35.70111 -19.577 -0 0 12.91224 -16.07912 11.36933 9.448302 5.329023 -21.60153 -2.592222 -90.82569 26.06462 20.69894 0 0 -21.0541 3.038885 9.787935 11.605
5.029884 104.9623 75.57518 0.59766 -5.436718 0.7331812 5.594074 5.010448 3.375494 -0 7.802134 -0 -6.406802 -9.086429 -1.641563 0.6068947 -19.4163 -3.498255 -0 50.37154 -0 -3.324306 -4.611787 15.04707 -1.663363 -0.8212949 6.081926 1.19557 10.71464 -6.909743 0.5124665 21.09199 6.945105 4.024248 -21.97101 6.580621 5.110192 -18.84951 11.89438 85.33632 35.88734 -17.3156 -0 0 14.12632 -18.26096 12.11593 10.67571 5.038846 -21.02715 -2.506223 -91.13661 25.93191 21.73066 0 0 -19.81152 2.125893 9.717923 12.60481
